<?xml version="1.0" encoding="UTF-8" standalone="no"?>
<svg
   xmlns:dc="http://purl.org/dc/elements/1.1/"
   xmlns:cc="http://creativecommons.org/ns#"
   xmlns:rdf="http://www.w3.org/1999/02/22-rdf-syntax-ns#"
   xmlns:svg="http://www.w3.org/2000/svg"
   xmlns="http://www.w3.org/2000/svg"
   viewBox="0 0 567.58752 276.92499"
   height="276.92499"
   width="567.58752"
   xml:space="preserve"
   version="1.1"
   id="svg2"><metadata
     id="metadata8"><rdf:RDF><cc:Work
         rdf:about=""><dc:format>image/svg+xml</dc:format><dc:type
           rdf:resource="http://purl.org/dc/dcmitype/StillImage" /></cc:Work></rdf:RDF></metadata><defs
     id="defs6" /><g
     transform="matrix(1.25,0,0,-1.25,0,276.925)"
     id="g10"><g
       transform="scale(0.1,0.1)"
       id="g12"><path
         id="path14"
         style="fill:#ffffff;fill-opacity:1;fill-rule:nonzero;stroke:none"
         d="m 1258.73,1741.13 c 0,-254.24 -206.09,-460.33 -460.324,-460.33 -254.226,0 -460.32,206.09 -460.32,460.33 0,254.22 206.094,460.32 460.32,460.32 254.234,0 460.324,-206.1 460.324,-460.32" /><path
         id="path16"
         style="fill:#6ec72e;fill-opacity:1;fill-rule:nonzero;stroke:none"
         d="m 876.477,0 -146.754,0 -376.77,1173.09 156.66,0 295.469,-987.602 3.961,0 295.467,987.602 148.73,0 L 876.477,0" /><path
         id="path18"
         style="fill:#6ec72e;fill-opacity:1;fill-rule:nonzero;stroke:none"
         d="m 1135.71,1684.58 -235.948,0 0,88.76 235.948,0 0,-88.76 z m -441.546,0 -235.965,0 0,88.76 235.965,0 0,-88.76 z m 576.366,92.43 c -0.18,9.37 -3.4,32.67 -3.4,32.67 l -937.853,-0.38 c -3.281,-21.76 -3.437,-32.68 -3.437,-32.68 l 99.691,0.04 0,-124.75 301.301,0 0,124.87 140.262,0.06 0,-124.93 301.276,0 0,125.05 102.16,0.05" /><path
         id="path20"
         style="fill:#745f47;fill-opacity:1;fill-rule:nonzero;stroke:none"
         d="m 909.684,1456.88 c -96.641,-45.25 -176.27,-23.27 -222.649,0 60.465,0 156.852,0 222.649,0 z m 61.019,32.66 -381.078,0 31.637,-28.47 c 1.566,-1.42 159.097,-139.53 358.738,-1.29 l 42.99,29.76 -52.287,0" /><path
         id="path22"
         style="fill:#745f47;fill-opacity:1;fill-rule:nonzero;stroke:none"
         d="m 798.164,1300.68 c -243.191,0 -441.051,197.85 -441.051,441.04 0,30.38 3.086,60.05 8.965,88.71 530.902,8.24 676.382,186.6 711.912,251.95 98.39,-80.96 161.24,-203.6 161.24,-340.66 0,-243.19 -197.86,-441.04 -441.066,-441.04 z m 472.346,406.55 c 0.82,11.41 1.39,22.88 1.39,34.49 0,261.21 -212.52,473.72 -473.736,473.72 -261.211,0 -473.715,-212.51 -473.715,-473.72 0,-10.06 0.422,-20.04 1.043,-29.95 C 300.984,1665.37 205.238,1516.72 0,1554.73 c 0,0 78.5898,-181.92 468.57,-152.79 85.34,-82.8 201.575,-133.93 329.594,-133.93 127.941,0 244.116,51.06 329.436,133.76 387.67,-28.1 465.95,152.96 465.95,152.96 -198.99,-36.86 -295.04,101.75 -323.04,152.5" /><path
         id="path24"
         style="fill:#6ec72e;fill-opacity:1;fill-rule:nonzero;stroke:none"
         d="m 1773.96,705.141 c -2.62,103.629 -60.35,181.039 -179.73,181.039 -116.76,0 -192.85,-98.399 -192.85,-181.039 l 372.58,0 z M 1401.38,610.68 c 0,-108.891 101.02,-181.051 209.9,-181.051 72.16,0 124.64,36.742 170.56,93.152 l 89.2,-68.222 c -65.59,-85.278 -156.11,-127.25 -275.5,-127.25 -196.79,0 -320.11,141.679 -320.11,326.66 0,186.293 135.13,326.672 321.43,326.672 219.08,0 303.05,-167.93 303.05,-327.981 l 0,-41.98 -498.53,0" /><path
         id="path26"
         style="fill:#6ec72e;fill-opacity:1;fill-rule:nonzero;stroke:none"
         d="m 2136.04,955.379 83.03,0 0,-534.5 281.09,0 0,-77.828 -364.12,0 0,612.328" /><path
         id="path28"
         style="fill:#6ec72e;fill-opacity:1;fill-rule:nonzero;stroke:none"
         d="m 2204.07,940.379 c 0,-28.34 0,-534.5 0,-534.5 0,0 254.2,0 281.09,0 0,-14.879 0,-32.938 0,-47.828 -26.4,0 -307.72,0 -334.12,0 0,27.828 0,554.488 0,582.328 15.7,0 37.33,0 53.03,0 z m 15,30 -98.03,0 0,-642.328 394.12,0 0,107.828 c 0,0 -254.2,0 -281.09,0 0,28.34 0,534.5 0,534.5 l -15,0" /><path
         id="path30"
         style="fill:#6ec72e;fill-opacity:1;fill-rule:nonzero;stroke:none"
         d="m 2681.9,964.891 110.2,0 0,-97.082 2.63,0 c 11.8,36.742 87.89,112.832 199.41,112.832 91.83,0 154.81,-39.36 194.17,-115.45 40.66,76.09 122,115.45 196.78,115.45 191.54,0 236.15,-136.442 236.15,-275.5 l 0,-362.09 -118.08,0 0,346.34 c 0,94.461 -19.68,181.05 -133.81,181.05 -114.14,0 -158.74,-77.41 -158.74,-187.613 l 0,-339.777 -118.08,0 0,325.347 c 0,118.082 -17.05,202.043 -131.19,202.043 -85.28,0 -161.37,-64.293 -161.37,-204.66 l 0,-322.73 -118.07,0 0,621.84" /><path
         id="path32"
         style="fill:#6ec72e;fill-opacity:1;fill-rule:nonzero;stroke:none"
         d="m 4187.97,642.16 c -111.51,0 -247.95,-19.672 -247.95,-119.379 0,-70.851 52.48,-101.019 133.82,-101.019 131.19,0 177.1,97.078 177.1,181.047 l 0,39.351 -62.97,0 z m -333.22,246.641 c 65.6,61.66 160.05,91.84 246.64,91.84 183.66,0 259.76,-99.711 259.76,-207.282 l 0,-317.488 c 0,-43.293 1.31,-80.019 5.24,-112.82 l -104.95,0 c -2.63,31.488 -3.94,62.969 -3.94,94.461 l -2.62,0 c -52.47,-80.043 -123.32,-110.203 -217.78,-110.203 -115.44,0 -215.15,65.589 -215.15,186.281 0,160.058 153.49,215.16 342.41,215.16 l 86.58,0 0,26.238 c 0,64.282 -47.22,131.192 -148.24,131.192 -90.52,0 -133.82,-38.039 -177.11,-70.84 l -70.84,73.461" /><path
         id="path34"
         style="fill:#745f47;fill-opacity:1;fill-rule:nonzero;stroke:none"
         d="m 655.438,1183.29 c 0,-9.32 -7.555,-16.86 -16.875,-16.86 -9.317,0 -16.852,7.54 -16.852,16.86 0,9.33 7.535,16.87 16.852,16.87 9.32,0 16.875,-7.54 16.875,-16.87" /><path
         id="path36"
         style="fill:#745f47;fill-opacity:1;fill-rule:nonzero;stroke:none"
         d="m 715.105,1149.56 c 0,-9.32 -7.539,-16.86 -16.851,-16.86 -9.336,0 -16.875,7.54 -16.875,16.86 0,9.33 7.539,16.87 16.875,16.87 9.312,0 16.851,-7.54 16.851,-16.87" /><path
         id="path38"
         style="fill:#745f47;fill-opacity:1;fill-rule:nonzero;stroke:none"
         d="m 777.395,1136.59 c 0,-9.32 -7.559,-16.86 -16.875,-16.86 -9.321,0 -16.875,7.54 -16.875,16.86 0,9.31 7.554,16.87 16.875,16.87 9.316,0 16.875,-7.56 16.875,-16.87" /><path
         id="path40"
         style="fill:#745f47;fill-opacity:1;fill-rule:nonzero;stroke:none"
         d="m 612.605,1226.12 c 0,-9.34 -7.539,-16.88 -16.851,-16.88 -9.316,0 -16.875,7.54 -16.875,16.88 0,9.29 7.559,16.85 16.875,16.85 9.312,0 16.851,-7.56 16.851,-16.85" /><path
         id="path42"
         style="fill:#745f47;fill-opacity:1;fill-rule:nonzero;stroke:none"
         d="m 933.074,1183.29 c 0,-9.32 7.563,-16.86 16.875,-16.86 9.321,0 16.875,7.54 16.875,16.86 0,9.33 -7.554,16.87 -16.875,16.87 -9.312,0 -16.875,-7.54 -16.875,-16.87" /><path
         id="path44"
         style="fill:#745f47;fill-opacity:1;fill-rule:nonzero;stroke:none"
         d="m 873.391,1149.56 c 0,-9.32 7.554,-16.86 16.89,-16.86 9.297,0 16.86,7.54 16.86,16.86 0,9.33 -7.563,16.87 -16.86,16.87 -9.336,0 -16.89,-7.54 -16.89,-16.87" /><path
         id="path46"
         style="fill:#745f47;fill-opacity:1;fill-rule:nonzero;stroke:none"
         d="m 811.121,1136.59 c 0,-9.32 7.539,-16.86 16.875,-16.86 9.317,0 16.859,7.54 16.859,16.86 0,9.31 -7.542,16.87 -16.859,16.87 -9.336,0 -16.875,-7.56 -16.875,-16.87" /><path
         id="path48"
         style="fill:#745f47;fill-opacity:1;fill-rule:nonzero;stroke:none"
         d="m 975.891,1226.12 c 0,-9.34 7.554,-16.88 16.875,-16.88 9.314,0 16.854,7.54 16.854,16.88 0,9.29 -7.54,16.85 -16.854,16.85 -9.321,0 -16.875,-7.56 -16.875,-16.85" /><path
         id="path50"
         style="fill:#ffffff;fill-opacity:1;fill-rule:nonzero;stroke:none"
         d="m 4411,1017.42 -24.58,0 0,8.87 59.84,0 0,-8.87 -24.7,0 0,-71.971 -10.56,0 0,71.971" /><path
         id="path52"
         style="fill:none;stroke:#6ec72e;stroke-width:10;stroke-linecap:butt;stroke-linejoin:miter;stroke-miterlimit:4;stroke-dasharray:none;stroke-opacity:1"
         d="m 4411,1017.42 -24.58,0 0,8.87 59.84,0 0,-8.87 -24.7,0 0,-71.971 -10.56,0 0,71.971 z" /><path
         id="path54"
         style="fill:#ffffff;fill-opacity:1;fill-rule:nonzero;stroke:none"
         d="m 4523.18,980.949 c -0.6,11.281 -1.32,24.951 -1.32,34.911 l -0.24,0 c -2.87,-9.36 -6.12,-19.559 -10.19,-30.712 l -14.28,-39.218 -7.91,0 -13.19,38.5 c -3.84,11.519 -6.96,21.83 -9.24,31.43 l -0.24,0 c -0.24,-10.08 -0.84,-23.508 -1.56,-35.739 l -2.15,-34.672 -9.96,0 5.64,80.841 13.31,0 13.79,-39.099 c 3.36,-9.953 6,-18.832 8.15,-27.222 l 0.25,0 c 2.16,8.152 5.04,17.031 8.63,27.222 l 14.4,39.099 13.31,0 5.04,-80.841 -10.32,0 -1.92,35.5" /><path
         id="path56"
         style="fill:none;stroke:#6ec72e;stroke-width:10;stroke-linecap:butt;stroke-linejoin:miter;stroke-miterlimit:4;stroke-dasharray:none;stroke-opacity:1"
         d="m 4523.18,980.949 c -0.6,11.281 -1.32,24.951 -1.32,34.911 l -0.24,0 c -2.87,-9.36 -6.12,-19.559 -10.19,-30.712 l -14.28,-39.218 -7.91,0 -13.19,38.5 c -3.84,11.519 -6.96,21.83 -9.24,31.43 l -0.24,0 c -0.24,-10.08 -0.84,-23.508 -1.56,-35.739 l -2.15,-34.672 -9.96,0 5.64,80.841 13.31,0 13.79,-39.099 c 3.36,-9.953 6,-18.832 8.15,-27.222 l 0.25,0 c 2.16,8.152 5.04,17.031 8.63,27.222 l 14.4,39.099 13.31,0 5.04,-80.841 -10.32,0 -1.92,35.5 z" /></g></g></svg>